<svg width="1440" height="1348" viewBox="0 0 1440 1348" fill="none" xmlns="http://www.w3.org/2000/svg">
<path d="M1437.14 311.914L1517.5 349.573L1519 346.299L1438.64 308.64L1438.78 308.367L1435.64 306.866L1435.5 307.275L1397.71 289.537L1440.28 196.754L1457.61 204.668L1459.11 201.394L1441.78 193.48L1442.46 191.979L1439.19 190.478L1438.51 191.979L1404.81 176.697L1466.34 43.1168L1456.65 38.6141L1443.69 66.8583L1441.37 64.4023C1440.69 64.948 1376.02 122.528 1345.73 145.86C1345.46 146.133 1345.05 146.406 1344.64 146.542L1313.67 100.424C1342.18 85.9606 1369.2 69.0414 1394.57 49.6661L1394.85 49.3933L1412.99 14.8726L1409.85 13.2352L1392.12 47.2101C1386.39 51.5764 1301.25 117.07 1230.99 123.483C1218.03 124.711 1205.21 127.167 1192.79 131.124C1165.37 139.857 1140.54 155.138 1120.48 175.605C1112.3 166.736 1106.29 159.232 1105.2 155.548C1104.66 152.819 1104.52 149.954 1104.66 147.225C1104.79 139.993 1104.93 130.033 1096.74 123.074C1085.42 113.523 1061.68 112.977 1019.79 121.164C1015.16 121.982 1010.93 122.801 1006.83 123.347C1010.11 80.7757 1043.94 23.1957 1044.49 22.5135L1035.35 17.0557C1033.57 19.921 998.921 78.8655 996.192 124.302C943.802 127.986 933.706 101.106 926.066 80.9122C923.746 74.6357 921.7 69.1778 918.698 65.0845C911.195 54.8511 882.817 38.887 857.577 25.9246L864.671 12.6894L855.258 7.64095L848.027 21.149C831.791 13.0988 818.284 6.95872 814.737 5.32137L810.371 15.009C818.148 18.5566 830.018 24.1508 842.979 30.5638L811.736 88.826L757.709 61.6734L772.443 26.4704L769.169 25.106L754.434 60.036L708.457 36.9767L715.687 20.3304L712.413 18.8295L705.319 35.3394L700.543 33.0198L698.906 36.158L703.818 38.6141L645.834 172.74L589.078 144.769L607.087 105.609L625.506 113.25L651.019 80.9122L668.482 26.6069L665.071 25.5153L648.017 79.1384L624.551 108.883L608.725 102.334L645.698 21.9677L636.011 17.465L475.021 367.448L445.688 358.852L555.243 96.0576L558.518 95.7847L615.546 13.2352L606.815 7.09516L552.515 85.5513L490.574 91.4185L332.859 15.009L328.22 24.5602L338.589 29.6087L247.725 158.14L114.567 100.424L172.687 1.77379L169.686 0L111.293 98.923L15.654 57.4435L14.2897 60.7182L109.656 102.061L93.0111 130.305L15.654 95.2389L14.1533 98.5136L90.9646 133.444L49.6256 203.577L-0.172112 180.79L-4.53793 190.478L170.641 270.571L131.894 355.168L-1.67287 294.176L-3.17361 297.451L98.3319 343.843C95.4668 349.983 84.5523 373.724 68.1804 410.292L-25.5485 370.177L-26.9128 373.451L66.6796 413.566C61.7681 424.618 56.4472 436.625 50.7171 449.724C47.7156 456.547 45.5327 463.642 44.1683 470.873L-18.1812 435.534L-19.9548 438.672L43.6226 474.557C41.1668 492.568 44.5776 510.852 53.4457 526.68L18.3827 603.225L21.657 604.726L55.6286 530.5C62.5867 541.825 71.4548 551.922 81.96 560.245L51.5357 629.969L-42.4661 588.216L-43.8304 591.491L50.3078 633.243L33.2538 672.13L-5.2201 656.03L-6.58442 659.305L31.8895 675.405L23.1578 695.463L26.4322 696.827L35.1638 676.769L110.338 708.288L89.4638 756.317L7.46809 723.843L3.51155 733.804L85.098 766.141L26.0229 902.723L-30.5965 879.664L-31.9608 882.939L24.6585 905.998L8.28667 943.793L18.1098 948.023L34.6181 909.955L57.8116 919.37L13.744 956.892L16.0633 959.621L61.4952 920.87L161.5 961.668L141.717 1015.15L-12.9967 964.533L-14.0882 967.944L140.489 1018.7L128.074 1052.4L-108.909 973.675L-110 976.95L126.846 1055.41L114.158 1089.79L-42.4661 1036.58L-43.5575 1039.99L113.067 1093.2L101.743 1123.9L-18.0447 1079.42L-19.2726 1082.69L100.515 1127.18L87.5538 1162.38L-1.4 1131.13L-2.62789 1134.41L86.3259 1165.65L72.8191 1202.22L-7.26658 1171.52L-8.49447 1174.8L71.5912 1205.5L57.6751 1243.15L-51.7435 1196.63L-53.1078 1199.9L56.3108 1246.57L42.3947 1284.36L-24.0477 1261.98L-27.4585 1272.08L38.7111 1294.46L23.2942 1336.35L26.5686 1337.57L41.9854 1295.69L112.794 1319.7L7.87739 1391.74L13.8804 1400.48L124.8 1324.2L159.181 1343.31L26.9779 1478.93L29.5701 1481.39L162.455 1345.08L238.448 1387.38L215.118 1457.1L218.529 1458.19L241.586 1388.74L326.037 1421.63L296.022 1486.16L305.709 1490.67L335.86 1425.86L381.292 1447L378.154 1457.1L381.565 1458.19L384.567 1448.51L414.718 1462.56L419.22 1452.87L387.704 1438.27L409.943 1364.59L420.994 1368.28L422.085 1364.86L410.898 1362.54L422.495 1325.43H453.465L419.766 1458.6L423.177 1458.74L439.139 1394.61L481.843 1389.7L461.924 1463.51L465.334 1464.33L485.526 1389.7L524 1400.48L503.672 1477.16L507.083 1478.11L534.778 1373.6L570.66 1383.28L554.425 1451.51L557.835 1452.33L574.071 1384.1L610.771 1394.06L596.036 1443.59L599.447 1444.68L614.182 1395.15L651.837 1405.39L639.013 1457.24L642.423 1458.06L668.891 1352.58L704.364 1362.54L681.716 1443.46L685.127 1444.41L692.767 1417.12L731.104 1426.54L719.371 1466.65L729.604 1469.65L741.746 1428.17L801.64 1407.84L815.283 1441.68L818.557 1440.32L805.051 1406.62L894.686 1376.19L909.148 1414.12L885 1439.77L887.592 1442.23L910.513 1417.8L920.609 1444.41L923.883 1443.18L913.105 1414.94L971.225 1352.99L999.193 1374.55L946.667 1443.59L955.126 1450.01L1007.52 1381.1L1054.58 1417.4L1033.57 1445.78L1036.44 1447.82L1057.45 1419.58L1083.1 1439.36L1085.28 1436.5L1059.63 1416.71L1114.48 1342.76L1163.46 1382.47L1113.93 1450.69L1116.8 1452.73L1142.45 1417.26L1187.74 1448.23L1189.79 1445.23L1144.63 1414.39L1166.32 1384.51L1274.65 1472.25L1281.34 1463.92L1212.03 1407.71L1230.04 1380.56L1281.88 1415.76L1287.75 1444L1291.16 1443.32L1266.74 1325.29L1288.98 1291.87L1335.64 1287.09L1376.56 1447.14L1379.98 1446.32L1339.18 1286.82L1384.61 1282.18L1419.13 1447.14L1422.54 1446.46L1388.03 1282.04L1430.46 1277.68L1456.65 1327.48L1466.06 1322.57L1441.92 1276.45L1489.39 1271.54L1488.98 1267.99L1440.14 1273.04L1359.92 1120.08L1434 1062.23L1431.82 1059.5L1357.74 1117.22L1320.76 1079.01L1445.74 991.822L1443.69 988.957L1318.31 1077.65L1279.7 1039.03H1343.55L1464.56 939.836L1457.88 930.967L1412.04 967.671L1407.13 901.768L1473.7 898.357L1473.57 894.809L1406.85 898.084L1398.67 788.655L1500.45 781.833L1500.17 778.285L1398.39 785.107L1394.16 728.755L1435.23 700.784L1450.37 701.33L1450.78 690.687L1391.3 688.64L1388.71 624.92L1419.54 575.663L1433.05 573.89L1432.5 570.342L1421.86 571.706L1439.6 543.462L1443.96 545.373L1445.33 542.098L1441.51 540.461L1452.15 523.541L1449.15 521.631L1438.23 539.096L1385.02 516.583L1426.64 420.388L1428 421.071L1429.36 417.796L1428 417.114L1452.28 361.035L1449.01 359.67L1424.73 415.749L1393.89 402.241L1437.14 311.914ZM1390.89 400.604L1375.06 393.645L1415.18 301.817L1433.73 310.55L1390.89 400.604ZM1381.2 518.629L1383.52 576.891L1346.55 581.803L1346.69 504.03L1381.2 518.629ZM1388.57 699.283L1390.07 718.931L1313.94 770.917L1310.67 750.177L1343.41 697.646L1388.57 699.283ZM1231.81 1294.59L1251.18 1267.85L1256.23 1292.14L1231.81 1294.59ZM1256.91 1295.55L1263.05 1324.89L1229.08 1375.92L1191.29 1350.26L1228.95 1298.28L1256.91 1295.55ZM1227.04 1295L1143.68 1303.6L1204.8 1221.05L1248.86 1256.12L1250.23 1263.08L1227.04 1295ZM785.95 1359.68L771.898 1324.75L777.628 1305.1L857.031 1277.13L875.586 1326.25L785.95 1359.68ZM613.227 1333.21L615.273 1311.79L651.428 1271.67L674.485 1277.27L666.163 1347.94L613.227 1333.21ZM546.784 1314.38L571.615 1296.64L611.59 1312.2L609.68 1332.12L546.784 1314.38ZM473.93 1313.97L521.272 1162.24L569.705 1175.89L546.648 1253.25L525.365 1270.31L522.772 1284.5L522.09 1284.91L534.642 1311.1L532.05 1313.97H473.93ZM242.95 200.575L243.632 198.937L228.215 191.979L248.953 162.643L294.794 182.564L246.361 293.358L209.797 276.711L242.95 200.575ZM206.523 275.21L178.418 262.385L226.169 194.844L238.993 200.711L206.523 275.21ZM496.85 125.53L445.825 244.101L412.944 229.774L457.694 126.485L475.294 115.979L488.801 110.657L498.76 124.438V125.53H496.85ZM566.976 237.552L549.922 230.183L556.471 216.13L572.707 224.862L577.618 222.406L568.75 242.191L566.976 237.552ZM564.248 240.28L570.796 257.063L555.107 292.539L526.865 280.259L548.422 233.458L564.248 240.28ZM553.606 295.814L515.405 381.911L485.936 369.085L525.228 283.534L553.606 295.814ZM552.787 332.79L566.976 322.966L573.662 304.546L586.486 310.141L549.104 396.647L534.505 390.234L545.693 363.627L542.419 362.263L531.231 388.87L518.543 383.275L556.744 297.178L570.251 303.045L563.838 320.647L550.468 329.789L552.787 332.79ZM748.84 161.142L765.894 174.377L745.703 212.036L702.181 194.435L721.145 149.408L748.84 161.142ZM1039.99 266.069L1014.06 280.941L1015.84 284.079L1041.21 269.48C1046.67 283.67 1051.17 294.995 1053.36 300.862L1036.58 311.096L991.417 295.814L989.097 241.099L1036.58 257.609C1037.8 260.474 1038.9 263.203 1039.99 266.069ZM1299.48 175.196L1275.2 229.774L1254.87 180.108C1269.87 179.562 1284.75 177.925 1299.48 175.196ZM1350.23 155.821L1353.23 157.185L1313.12 249.968L1277.52 233.322L1303.85 174.241C1320.76 170.83 1337.41 164.963 1350.23 155.821ZM1353.37 153.365C1354.05 152.819 1354.74 152.273 1355.55 151.727L1354.6 153.91L1353.37 153.365ZM1312.85 790.974L1302.35 791.657L1312.44 784.698L1312.85 790.974ZM1285.84 790.156L1307.94 754.68L1310.8 773.1L1285.84 790.156ZM1278.61 795.204L1268.65 802.026L1266.74 695.053L1298.8 696.145L1307.12 749.495L1278.61 795.204ZM1123.21 1152.55H1121.98L1124.17 1039.17H1170.42V1091.56L1123.21 1152.55ZM1108.61 1231.01L1093.33 1195.67L1123.76 1156.38L1149.68 1176.98L1108.61 1231.01ZM1091.69 1191.99L1074.78 1152.96L1119.39 1096.07L1118.3 1151.19V1152.01L1121.03 1154.19L1091.69 1191.99ZM974.09 1215.46L990.189 1196.35L987.46 1194.03L971.361 1213.27L938.89 1187.08L1034.53 1069.32L1070.55 1152.42L1002.74 1238.92L974.09 1215.46ZM682.671 1204.54L631.372 1189.67L655.112 1115.85L699.588 1129.9L698.77 1132.5L683.353 1203.86L682.671 1204.54ZM649.245 1268.94L645.288 1273.45L628.917 1256.12L677.214 1221.73L673.53 1233.88L654.975 1241.38L649.245 1268.94ZM613.09 1308.92L575.162 1294.19L606.405 1271.81L626.734 1293.78L613.09 1308.92ZM547.876 1256.53L553.879 1264.71L526.729 1281.91L528.503 1272.08L547.876 1256.53ZM537.234 1098.93L493.985 1086.92L500.125 1066.73L543.101 1080.24L537.234 1098.93ZM501.216 1063.46L531.504 963.305L575.435 977.495L544.056 1077.1L501.216 1063.46ZM426.315 1128.68L369.968 1098.8L381.019 1073.83L437.366 1088.43L433.136 1103.16L426.315 1128.68ZM284.835 1281.5L252.5 1252.43L305.845 1197.72L318.943 1204.54L284.835 1281.5ZM269.691 1179.03L302.571 1196.08L249.908 1250.11L223.031 1225.96L269.691 1179.03ZM285.653 845.689L274.329 874.752L207.614 847.326L218.119 818.809L285.653 845.689ZM473.657 480.834L418.402 563.52L406.396 558.198L441.322 466.507L473.657 480.834ZM697.269 196.481L673.53 252.97L656.067 245.738L677.486 188.977L697.269 196.481ZM893.322 266.069L820.467 404.151L818.012 403.333L815.692 405.925L752.115 378.363L819.922 241.372L893.322 266.069ZM993.327 337.566L991.69 299.498L1032.62 313.415L993.327 337.566ZM989.916 339.613L983.777 343.433L983.231 343.843L982.822 344.252L931.387 319.282L948.168 284.898L988.006 298.406L989.916 339.613ZM1061.82 328.424L1111.75 321.875L1121.03 383.139L1052.81 391.735L1061.82 328.424ZM1276.01 236.596L1311.62 253.243L1270.83 347.527L1267.15 345.889L1262.37 348.618L1246.68 297.86L1249.14 297.178L1276.01 236.596ZM1297.98 500.209L1300.03 587.943L1264.96 592.583L1263.33 498.845L1297.98 500.209ZM1266.6 684.274L1265.1 596.267L1300.3 591.628L1302.48 685.638L1266.6 684.274ZM1167.96 870.658L1126.76 898.766L1127.44 860.562L1167.69 859.879L1167.96 870.658ZM1171.37 859.743L1184.2 859.47L1171.37 868.202V859.743ZM1036.85 1066.87L1037.53 1039.17H1079.14L1053.77 1106.71L1036.85 1066.87ZM842.706 1249.43L901.917 1170.84L929.477 1193.22L867.946 1268.94L842.706 1249.43ZM598.492 1179.98L621.686 1105.21L651.701 1114.76L627.962 1188.58L598.492 1179.98ZM622.777 1101.93L640.104 1046.4L670.665 1056.22L652.792 1111.48L622.777 1101.93ZM387.704 1050.08L354.142 1036.3L389.887 970.4L429.316 956.346L387.704 1050.08ZM311.166 808.576L324.127 774.601L414.445 810.213L425.36 843.506L365.875 866.019L299.433 839.685L310.075 811.851L384.976 845.825L386.477 842.551L311.166 808.576ZM283.47 758.637L314.168 770.78L301.479 804.21L256.73 783.879L283.47 758.637ZM364.238 639.111L313.622 680.999L314.304 659.305L335.178 612.777L369.423 626.148L364.238 639.111ZM380.746 630.514L385.249 632.152V716.748L384.294 716.885L413.217 805.983L325.491 771.463L378.7 632.288L380.746 630.514ZM561.656 519.721L547.739 552.877L486.481 525.588L509.402 496.661L561.656 519.721ZM644.47 331.426L675.576 257.473L713.777 273.3L676.395 345.343L644.47 331.426ZM747.34 380.001L704.5 464.46L652.519 441.81L684.581 352.848L747.34 380.001ZM880.361 298.133L926.748 320.647L875.995 424.345L823.878 405.243L880.361 298.133ZM1220.21 374.133C1220.62 375.498 1221.03 376.862 1221.44 378.227L1190.88 490.794L1190.06 492.295L1130.71 472.374L1136.31 463.642L1136.72 463.096L1124.98 386.141L1220.21 374.133ZM839.295 1106.3L866.172 1088.43L905.737 1119.13L905.328 1159.79L839.295 1106.3ZM642.969 995.37L655.657 955.118L686.9 964.669L675.849 1005.88L642.969 995.37ZM520.999 841.596L525.91 826.041C527.138 824.676 529.867 821.675 533.551 817.718L616.501 847.053L609.134 870.522L520.999 841.596ZM486.891 916.231L442.005 899.448L444.597 877.071H462.742L494.531 890.989L486.891 916.231ZM495.486 886.623L463.561 871.887H443.915L430.271 853.33L472.838 837.093L507.628 848.554L495.486 886.623ZM595.354 608.137L635.875 605.818L635.738 604.044L637.239 604.863L658.659 562.565L675.303 569.933L568.341 693.143L595.354 608.137ZM815.146 531.592L834.793 538.414L811.736 609.502L777.628 598.45L787.724 561.337L815.146 531.592ZM1061.27 574.299L1029.34 624.102L985.005 629.969L1011.75 546.191L1014.75 537.595L1061.27 574.299ZM1128.8 475.512L1188.15 495.433L1155.41 549.329L1105.34 512.216L1128.8 475.512ZM1153.63 552.468L1120.35 607.319L1069.87 567.613L1103.43 515.218L1153.63 552.468ZM1110.66 613.186L1033.98 623.419L1064.14 576.482L1110.66 613.186ZM1047.08 734.759L1082.55 742.263L1081.6 857.833L1053.08 858.378C1049.26 858.378 1045.58 858.788 1042.17 859.061L1045.17 737.761L1047.08 734.759ZM1048.99 731.484L1071.09 695.053L1081.87 738.443L1048.99 731.484ZM1045.31 730.665L1028.8 727.118L1065.5 671.994L1070 690.278L1045.31 730.665ZM1025.12 726.436L974.909 715.793L1031.53 627.513L1096.61 618.78L1025.12 726.436ZM879.952 959.075L902.599 888.26L944.621 901.632L940.664 978.86L879.952 959.075ZM937.935 1027.16L868.901 997.962L877.769 969.445L938.072 989.093L937.935 1027.16ZM838.886 1058.54L788.406 1042.31L817.193 949.797L828.653 953.481L810.371 1032.62L844.752 1039.03L838.886 1058.54ZM617.593 843.506L536.279 814.852C543.51 807.211 553.47 796.842 563.566 787.154L628.917 807.484L617.593 843.506ZM483.889 714.156L543.101 737.078L530.549 776.511L468.745 750.177L483.889 714.156ZM566.294 699.556L566.976 700.102L678.851 571.297L683.762 573.48L728.239 609.911L679.669 662.579L636.966 620.963L634.51 623.556L677.214 665.308C668.209 674.996 606.951 740.762 584.576 755.635C569.159 765.868 548.149 786.881 533.687 802.026L566.294 699.556ZM756.344 595.312L773.398 600.906L748.158 693.825L684.035 673.631C685.263 672.403 685.945 671.585 686.218 671.312L756.344 595.312ZM758.936 592.446L782.403 566.931L774.217 597.358L758.936 592.446ZM865.49 607.592L893.049 615.915L902.19 601.315L919.79 607.592L909.694 640.066L907.102 640.475L860.033 625.193L865.49 607.592ZM906.42 643.886L906.829 644.023L908.602 643.75L880.088 735.441L830.7 719.886L859.078 628.604L906.42 643.886ZM971.089 714.838L958.81 712.109L983.777 633.789L1026.75 628.058L971.089 714.838ZM948.304 709.789L895.369 697.919L912.286 643.34L972.043 635.29L948.304 709.789ZM869.856 955.8L820.331 939.563L853.211 833.682L903.555 850.055L869.856 955.8ZM716.779 970.264L703.681 966.307L707.092 955.937L719.917 959.894L716.779 970.264ZM720.872 956.483L708.047 952.526L719.371 917.869L731.377 921.826L720.872 956.483ZM701.226 911.729L691.675 947.204L661.115 937.653L672.302 902.177L701.226 911.729ZM686.491 863.836L709.411 856.605L711.867 867.93L709.548 869.703L693.858 880.755L685.127 872.569L686.491 863.836ZM734.788 844.734L711.594 852.102L702.999 835.728L707.229 817.991H720.599L720.053 818.673L734.788 844.734ZM767.122 703.513L755.935 728.346L755.526 733.258L706.001 715.793L715.005 687.003L767.122 703.513ZM776.536 882.256L759.755 875.843L753.206 866.156L760.71 837.639L787.178 848.418L776.536 882.256ZM736.698 848.145L741.064 854.558L728.376 855.922L715.142 865.746L712.822 855.649L736.562 848.009L736.698 848.145ZM729.74 859.333L743.383 857.969L755.935 876.389L751.569 888.26L733.287 898.493H724.965L713.095 872.842L729.74 859.333ZM788.133 844.87L761.529 834.091L768.76 806.12L797.274 815.398L788.133 844.87ZM769.851 802.709L786.496 750.314C788.269 749.631 790.043 748.949 791.68 748.403C803.55 744.583 812.281 757.682 814.191 760.683L798.229 811.851L769.851 802.709ZM829.608 723.297L878.997 738.852L850.892 829.179L801.64 813.079L829.608 723.297ZM815.692 756.317C811.736 750.859 802.731 741.172 790.725 744.992C789.634 745.402 788.542 745.674 787.314 746.22C787.86 740.353 788.679 727.664 786.223 723.707C784.586 720.978 784.176 713.473 784.04 708.971L826.334 722.342L815.692 756.317ZM780.493 707.743C780.493 711.427 780.766 721.387 783.221 725.481C784.859 728.209 784.449 740.217 783.631 747.721C781.038 748.813 778.31 749.904 775.718 751.132C774.626 747.994 772.989 745.265 770.942 742.809C768.077 739.807 762.211 740.762 758.8 741.718L759.619 729.437L770.67 704.741L780.493 707.743ZM757.026 756.454L757.709 755.908L758.391 745.265C761.938 744.174 766.713 743.491 768.35 745.129C770.124 747.312 771.625 749.768 772.443 752.497C761.665 757.545 751.842 762.867 751.296 763.276L750.751 763.549L746.794 771.735L739.154 770.508C743.247 767.096 751.433 760.82 757.026 756.454ZM704.909 719.341L755.253 737.078L754.161 754.134C747.613 759.183 737.789 766.687 734.515 769.552L695.768 748.676L704.909 719.341ZM736.016 773.646L748.568 775.692L753.206 766.141C755.935 764.64 769.851 757.272 782.13 752.087L766.304 801.617L733.287 790.838C734.379 783.879 735.47 776.511 736.016 773.646ZM765.485 805.028L750.614 862.199L739.836 846.235L724.146 817.581L732.741 794.113L765.485 805.028ZM704.636 912.957L716.233 916.777L704.773 951.571L694.95 948.569L704.636 912.957ZM692.903 897.811L695.495 883.894L709.957 874.752L722.509 901.904H733.833L754.025 890.716L758.391 879.664L775.445 885.804L764.394 921.28L692.903 897.811ZM800.685 816.49L849.937 832.59L817.057 938.472L767.941 922.371L800.685 816.49ZM904.646 846.644L854.302 830.134L882.408 739.671L933.57 755.771L904.646 846.644ZM934.661 752.633L883.499 736.533L894.414 701.33L947.349 713.2L934.661 752.633ZM827.289 718.795L784.449 705.287L813.919 614.005L855.53 627.513L827.289 718.795ZM781.038 704.195L751.569 694.917L776.673 601.861L810.644 612.777L781.038 704.195ZM630.008 804.073L566.567 784.289C573.934 777.057 581.984 770.508 590.443 764.504C595.627 760.956 600.539 756.999 605.314 752.633L642.423 764.777L630.008 804.073ZM608.315 749.904C623.732 735.987 643.242 716.339 658.659 700.238L660.16 707.743L643.378 761.366L608.315 749.904ZM663.98 708.016L661.797 697.1C669.983 688.504 676.941 681.136 681.307 676.497L711.731 686.048L683.899 774.601L646.789 762.457L663.98 708.016ZM694.677 751.951L732.605 772.418C732.059 774.601 731.377 779.24 730.013 789.61L687.173 775.692L694.677 751.951ZM730.013 793.157L723.328 813.215V816.626H704.5L699.316 837.229L708.32 854.149L685.263 860.971L665.48 845.28L686.491 779.104L730.013 793.157ZM664.389 848.691L683.08 863.29L681.579 873.797L691.948 883.484L689.492 896.583L653.065 884.576L664.389 848.691ZM668.891 901.222L657.704 936.835L638.603 930.831L649.927 894.946L668.891 901.222ZM637.512 934.106L656.612 940.109L653.338 950.752L634.237 944.885L637.512 934.106ZM660.023 941.201L690.72 950.752L687.855 961.395L656.749 951.844L660.023 941.201ZM694.131 951.844L703.681 954.845L700.271 965.215L691.266 962.486L694.131 951.844ZM699.179 968.626L692.767 988.274L684.99 986.091L690.448 965.761L699.179 968.626ZM702.59 969.581L715.687 973.675L703.136 1014.88L689.22 1010.38L702.59 969.581ZM734.924 922.781L761.256 931.377L732.469 1024.16L706.546 1015.84L734.924 922.781ZM764.667 932.605L813.782 948.705L784.995 1041.22L735.879 1025.39L764.667 932.605ZM845.707 1035.62L833.019 1033.3L847.208 992.777L857.304 997.143L845.707 1035.62ZM845.161 988.138L829.472 1032.76L814.601 1030.03L831.928 954.709L866.581 966.034L858.259 993.732L845.161 988.138ZM944.893 898.084L903.691 884.849L914.06 852.511L946.94 859.333L944.893 898.084ZM915.151 849.237L957.854 715.52L969.178 718.112L953.216 742.946L952.943 743.355L947.213 855.922L915.151 849.237ZM956.354 744.583L972.726 718.931L1022.93 729.574L1020.61 732.985L1020.48 733.258L981.867 863.154L950.624 856.605L956.354 744.583ZM1001.65 542.917L987.46 587.534L935.48 569.523L959.082 493.796L1006.02 530.773L1001.65 542.917ZM986.369 590.809L973.408 631.606L913.65 639.656L934.388 572.935L986.369 590.809ZM920.881 604.18L900.689 596.949L891.548 611.685L866.718 604.18L881.998 554.787L930.977 571.706L920.881 604.18ZM856.622 624.102L815.01 610.593L838.067 539.505L878.587 553.559L856.622 624.102ZM730.558 607.455L685.672 570.615L684.581 571.979L685.263 570.342L681.17 568.568L749.932 489.566L800.412 531.864L730.558 607.455ZM677.759 567.067L660.296 559.29L702.863 475.24L709.411 478.105C712.004 479.469 730.695 489.157 748.158 485.882L677.759 567.067ZM556.471 695.463L500.943 673.768L526.183 613.732L575.844 634.744L556.471 695.463ZM555.38 698.737L553.606 704.331L497.123 682.773L499.579 676.906L555.38 698.737ZM552.515 707.743L544.192 733.667L485.253 710.881L495.622 686.184L552.515 707.743ZM466.426 748.676L389.615 715.656V644.978L493.576 684.82L466.426 748.676ZM464.107 751.951L437.502 815.535L417.31 807.484L388.66 719.75L464.107 751.951ZM436.138 818.809L427.679 839.14L418.811 811.987L436.138 818.809ZM439.412 820.037L462.879 829.315L430.408 841.596L439.412 820.037ZM474.475 826.314L472.702 825.768L467.927 827.542L440.913 816.899L467.517 753.452L529.594 779.786L510.766 838.184L474.475 826.314ZM645.698 765.868L682.807 778.012L649.654 883.621L612.545 871.477L645.698 765.868ZM646.516 893.854L633.146 936.562L595.9 924.554L609.407 881.711L646.516 893.854ZM633.146 948.296L652.246 954.163L639.558 994.414L620.458 988.274L633.146 948.296ZM683.899 989.639L691.539 991.686L685.809 1009.29L679.26 1007.1L683.899 989.639ZM731.377 1027.71L718.825 1068.1L675.031 1053.9L687.992 1013.79L731.377 1027.71ZM734.788 1028.8L784.04 1044.63L771.488 1085.01L722.236 1069.19L734.788 1028.8ZM787.314 1045.72L837.794 1061.96L825.652 1102.62L774.899 1086.11L787.314 1045.72ZM905.601 1114.62L869.174 1086.38L906.147 1061.68L905.601 1114.62ZM839.568 1093.34L867.127 1001.37L934.388 1030.03L839.568 1093.34ZM944.757 980.088L950.624 860.152L984.459 867.247L1023.89 734.759L1026.75 730.393L1043.4 733.94L1041.9 736.396L1041.62 736.805L1038.49 859.606C1023.21 862.062 1011.47 867.793 1003.56 877.071C990.871 892.08 992.917 910.637 993.19 912.274L995.919 988.411L948.577 1021.16V981.179L944.757 980.088ZM995.373 1004.51L994.828 1029.07H959.355L995.373 1004.51ZM999.057 1000.42L1035.76 976.131L1034.39 1028.94H998.511L999.057 1000.42ZM998.921 986.091L996.874 912.138V912.002C996.874 911.865 994.418 893.581 1006.42 879.391C1013.52 870.931 1024.3 865.61 1038.49 863.29L1036.03 960.849L998.921 986.091ZM1042.03 862.745C1045.72 862.335 1049.4 862.062 1053.08 862.062L1081.46 861.517L1080.92 930.149L1039.58 958.393L1042.03 862.745ZM1085.15 861.38L1124.03 860.698L1123.21 901.359L1084.6 927.693L1085.15 861.38ZM1085.15 857.833L1086.1 741.99L1126.62 725.481L1124.03 857.15L1085.15 857.833ZM1085.42 738.443L1073.55 690.823L1108.88 632.698L1126.21 721.66L1085.42 738.443ZM1072.46 686.048L1067.96 668.037L1101.11 618.098L1114.48 616.324L1114.61 616.461L1072.46 686.048ZM1125.39 611.276L1123.07 609.502L1164.55 541.143L1165.23 605.954L1125.39 611.276ZM1165.37 609.638L1165.78 643.067L1129.49 614.414L1165.37 609.638ZM1168.1 535.412L1192.38 496.389L1213.39 497.071V599.678L1169.46 605.409L1168.1 535.412ZM1133.03 462.414L1127.03 471.828L1097.15 474.284L1086.37 391.326L1121.57 386.823L1133.03 462.414ZM1124.57 475.512L1102.47 510.033L1101.79 509.487L1097.56 477.696L1124.57 475.512ZM1098.52 511.534L1100.56 513.035L1067 565.294L1054.86 555.742L1047.22 481.789L1094.15 477.968L1098.52 511.534ZM1043.67 482.062L1051.04 552.741L1018.43 527.089L1033.98 482.88L1043.67 482.062ZM1009.56 520.13L968.906 488.065L1022.25 483.699L1009.56 520.13ZM932.069 568.295L883.09 551.376L912.423 456.956L956.081 491.34L932.069 568.295ZM879.679 550.285L817.739 528.863L886.228 454.773L896.46 444.676L909.285 454.773L879.679 550.285ZM878.587 447.132L802.868 529.272L752.251 486.974L754.571 484.381C758.664 482.744 762.347 480.424 765.349 477.286C780.766 461.868 812.281 426.119 821.286 415.886L886.364 439.627L878.587 447.132ZM757.845 469.645C743.11 484.381 714.732 468.963 714.46 468.827L714.187 468.69L707.774 465.961L750.614 381.502L813.236 408.791C804.368 418.751 772.852 454.773 757.845 469.645ZM699.725 474.012L657.158 558.062L617.047 540.324L617.456 539.096L648.972 451.771L699.725 474.012ZM655.521 561.2L634.647 602.407L596.582 604.59L615.956 543.735L655.521 561.2ZM576.799 631.333L527.411 610.321L564.793 521.085L605.996 539.369L576.799 631.333ZM484.299 528.59L546.375 556.288L524.273 609.093L446.643 576.073L484.299 528.59ZM444.324 578.938L522.772 612.231L497.532 672.403L400.393 634.471L444.324 578.938ZM496.987 675.678L494.94 681.545L389.615 641.157V633.38L496.987 675.678ZM362.328 876.116L351.414 906.271L284.152 878.709L295.476 849.509L362.328 876.116ZM365.603 877.481L426.724 854.422L441.049 873.66L438.457 896.992L415.81 887.987L400.256 926.465L354.552 907.772L365.603 877.481ZM399.028 929.739L386.613 960.303L382.384 961.804L381.974 962.486L341.045 945.567L353.596 911.046L399.028 929.739ZM391.115 958.802L417.992 892.763L438.184 900.813L433.409 943.657L391.115 958.802ZM441.595 902.041L485.936 919.642L485.253 921.962L466.972 931.513L437.229 942.156L441.595 902.041ZM504.9 891.944L517.724 851.693L557.563 864.655L529.048 958.666L489.346 945.84L504.9 891.944ZM560.973 865.883L605.996 880.619L576.663 974.084L532.595 959.757L560.973 865.883ZM594.808 927.966L632.055 939.973L617.183 987.183L579.937 975.176L594.808 927.966ZM616.092 990.594L603.404 1030.85L566.158 1018.84L578.846 978.723L616.092 990.594ZM619.503 991.549L650.336 1001.51L637.785 1041.76L606.815 1031.8L619.503 991.549ZM653.747 1002.6L684.717 1012.56L671.756 1052.68L641.195 1042.72L653.747 1002.6ZM674.076 1057.18L717.87 1071.37L700.816 1126.49L656.339 1112.44L674.076 1057.18ZM721.281 1072.46L770.533 1088.43L753.479 1143.14L704.227 1127.59L721.281 1072.46ZM773.807 1089.52L822.105 1105.21L753.752 1153.92L773.807 1089.52ZM899.189 1168.52L863.307 1216.14L814.191 1179.84L833.156 1114.9L899.189 1168.52ZM813.1 1183.66L861.124 1219.14L839.568 1247.79L797.001 1238.79L813.1 1183.66ZM908.466 1162.38H908.739L909.83 1060.59L943.802 1039.17H949.123L946.667 1173.16L936.162 1185.44L908.466 1162.38ZM952.67 1039.17H994.691L993.19 1115.99L950.351 1169.34L952.67 1039.17ZM998.375 1039.17H1034.12L1033.44 1066.59L996.874 1112.03L998.375 1039.17ZM1037.94 1029.07L1039.3 972.993L1080.92 945.431L1080.23 1029.07H1037.94ZM1084.46 942.156L1122.94 916.641L1120.75 1029.07H1083.78L1084.46 942.156ZM1126.48 913.502L1167.96 885.94L1169.32 1029.21H1124.17L1126.48 913.502ZM1127.58 857.014L1130.17 723.98L1166.32 709.243L1167.82 856.332L1127.58 857.014ZM1129.76 720.296L1111.75 628.195L1117.48 618.644L1165.78 656.712L1166.32 705.423L1129.76 720.296ZM1169.32 659.441L1206.71 688.777L1169.87 703.922L1169.32 659.441ZM1170.42 645.796V609.093L1213.53 603.362V679.771L1170.42 645.796ZM1217.76 602.816L1255.41 597.631L1256.37 683.865L1217.08 682.5L1217.62 682.364L1217.76 602.816ZM1255.41 594.084L1217.76 599.268V497.207L1254.19 498.572L1255.41 594.084ZM1194.02 492.841L1194.16 492.432L1194.29 492.295L1223.49 384.776C1233.72 419.16 1244.09 454.5 1252.41 483.699L1252.55 495.024L1194.02 492.841ZM1258.96 467.735C1253.23 448.087 1242.18 410.155 1230.45 370.859L1267.42 349.983L1305.48 366.765L1258.96 467.735ZM1259.23 350.392L1229.35 367.311C1228.67 365.265 1228.13 363.218 1227.44 361.171C1221.03 340.159 1215.71 322.694 1211.21 308.094L1243.13 298.952L1259.23 350.392ZM1219.26 370.722L1168.51 377.135L1157.73 315.735L1200.57 310.141C1206.43 328.561 1212.71 349.3 1219.26 370.722ZM1164.96 377.681L1124.44 382.866L1115.16 321.602L1154.32 316.417L1164.96 377.681ZM1082.83 391.598L1093.6 474.421L1035.21 479.06L1043.81 454.5L1052.13 395.419L1082.83 391.598ZM1033.44 452.044L1023.61 480.015L964.812 484.791L960.583 481.516L957.036 407.563L1041.35 396.92L1033.44 452.044ZM956.9 478.514L904.1 436.898L943.938 397.466L953.489 406.607L956.9 478.514ZM894.686 431.304L879.27 425.71L929.886 322.421L980.093 346.844L894.686 431.304ZM928.249 317.509L881.998 294.995L896.596 267.16L944.757 283.534L928.249 317.509ZM748.84 376.862L686.218 349.573L751.978 222.543L753.888 218.859L816.374 240.008L748.84 376.862ZM742.565 217.494L715.278 270.026L676.804 254.198L700.543 197.709L743.792 215.174L742.565 217.494ZM654.975 249.013L672.302 256.108L641.332 329.925L626.87 323.649L654.975 249.013ZM639.831 333.336L626.87 364.446L613.5 359.261L625.642 327.196L639.831 333.336ZM643.106 334.701L674.758 348.482L642.696 437.444L606.542 421.616L643.106 334.701ZM639.149 447.541L607.36 535.548L607.224 535.958L566.294 517.947L602.585 431.577L639.149 447.541ZM563.02 516.446L511.176 493.523L548.149 407.835L599.174 430.076L563.02 516.446ZM396.982 633.243L383.475 627.922L398.892 615.233L398.483 614.687L420.721 566.794L477.068 482.471L506.264 495.297L396.982 633.243ZM416.628 566.658L394.799 613.868L380.883 625.33L405.168 561.61L416.628 566.658ZM370.514 622.874L336.542 609.638L365.875 544.008L395.618 557.243L370.514 622.874ZM333.132 608.274L298.478 594.766L327.674 527.089L362.465 542.644L333.132 608.274ZM220.984 479.469L248.953 491.886L218.256 563.383L189.605 552.195L220.984 479.469ZM252.227 493.387L287.018 508.942L256.047 578.256L221.53 564.748L252.227 493.387ZM354.961 454.773L325.901 522.313L291.656 507.031L319.488 444.812L354.961 454.773ZM288.518 505.667L253.592 490.112L299.024 384.367L315.668 443.857L316.078 443.994L288.518 505.667ZM290.292 510.306L324.536 525.588L295.204 593.538L259.322 579.484L290.292 510.306ZM329.175 524.906L358.508 457.911H401.348L363.965 541.006L329.175 524.906ZM359.327 444.949L324.4 435.261L324.264 434.579L370.105 328.834L403.531 342.615L359.327 444.949ZM322.626 429.121L305.709 369.085L306.255 367.993L330.812 312.869L366.694 327.469L322.626 429.121ZM332.313 309.458L373.925 216.812L408.306 231.684L368.195 324.331L332.313 309.458ZM329.039 307.957L297.25 294.722L338.043 200.984L370.65 215.174L329.039 307.957ZM295.749 298.133L327.538 311.369L304.208 363.491L291.247 317.372L292.475 314.643L289.201 313.142L295.749 298.133ZM284.562 332.79L297.523 378.909L250.317 488.611L222.349 476.195L284.562 332.79ZM241.586 405.107L208.023 389.825L245.269 304.683L278.422 319.828L241.586 405.107ZM240.221 408.381L212.662 471.965L178.554 457.365L206.659 393.099L240.221 408.381ZM211.161 475.24L179.782 547.692L147.175 529.135L177.19 460.503L211.161 475.24ZM188.104 555.469L216.755 566.658L195.472 616.188L168.049 601.588L188.104 555.469ZM220.029 568.022L254.547 581.531L230.808 634.471L234.082 635.972L257.821 582.895L293.021 596.676L252.91 647.161L198.473 618.098L220.029 568.022ZM251.272 650.163L227.67 708.016L190.424 691.506L216.209 631.47L251.272 650.163ZM255.092 650.299L296.568 597.904L331.631 611.549L310.757 658.213L310.62 658.622L309.938 684.138L262.46 723.434L231.08 709.516L255.092 650.299ZM361.646 645.933L315.395 767.369L286.335 755.908L308.165 735.305L305.709 732.712L253.455 781.696L230.125 754.407L361.646 645.933ZM253.865 786.472L300.252 807.484L289.473 835.728L227.533 811.168L253.865 786.472ZM273.101 878.027L259.868 912.002L193.698 884.712L206.25 850.737L273.101 878.027ZM282.925 882.12L350.186 909.682L337.634 944.203L269.691 916.095L282.925 882.12ZM336.542 947.477L323.309 983.908L254.41 955.391L268.326 919.37L336.542 947.477ZM339.817 948.842L380.337 965.625L361.782 999.872L326.583 985.273L339.817 948.842ZM360.145 1003.01L344.183 1032.35L314.168 1020.07L325.491 988.547L360.145 1003.01ZM342.409 1035.48L321.398 1074.24L297.25 1066.32L312.667 1023.48L342.409 1035.48ZM319.625 1077.37L300.388 1109.44L283.743 1103.98L296.159 1069.73L319.625 1077.37ZM298.478 1112.44L278.559 1145.6L269.691 1142.59L282.515 1107.12L298.478 1112.44ZM276.785 1148.87L264.643 1169.06L257.821 1176.02L268.599 1146.14L276.785 1148.87ZM320.443 1201.27L308.437 1194.99L335.587 1167.15L320.443 1201.27ZM339.817 1157.88L305.299 1193.35L272.419 1176.3L273.238 1175.48L329.721 1081.47L365.466 1100.43L339.817 1157.88ZM331.358 1078.33L352.505 1039.44L386.34 1053.22L366.83 1097.02L331.358 1078.33ZM438.321 1085.15L382.384 1070.55L396.845 1037.94L447.598 1052.54L438.321 1085.15ZM448.69 1049.27L398.346 1034.8L411.307 1005.47L457.831 1016.79L448.69 1049.27ZM412.808 1002.19L433.955 954.709L470.928 941.474L481.161 936.152L458.922 1013.52L412.808 1002.19ZM488.391 949.388L528.093 962.213L508.856 1025.8L469.291 1016.11L488.391 949.388ZM565.203 1022.11L602.449 1034.12L584.849 1089.93L547.467 1078.06L565.203 1022.11ZM605.86 1035.21L636.83 1045.17L619.503 1100.84L588.396 1091.02L605.86 1035.21ZM618.411 1104.25L595.081 1179.03L563.566 1169.88L587.305 1094.43L618.411 1104.25ZM627.143 1192.12L620.867 1228.96L561.383 1216L573.116 1176.43L627.143 1192.12ZM560.428 1219.41L620.321 1232.51L617.183 1251.34L572.024 1283.54L550.332 1253.8L560.428 1219.41ZM555.925 1267.71L569.023 1285.59L537.371 1308.1L526.456 1286.27L555.925 1267.71ZM629.053 1291.32L609.27 1269.9L625.779 1258.16L642.696 1276.04L629.053 1291.32ZM621.276 1248.34L630.554 1193.08L678.987 1207.13L621.276 1248.34ZM702.317 1133.45L703.136 1131L752.388 1146.55L749.113 1157.19L687.855 1200.86L702.317 1133.45ZM820.877 1119.13L786.632 1236.47L745.703 1227.05L750.887 1169.06L820.877 1119.13ZM796.046 1242.34L839.568 1251.48L864.535 1270.72L778.856 1300.87L796.046 1242.34ZM867.946 1273.45L900.007 1298.28L878.451 1323.93L860.306 1276.04L867.946 1273.45ZM870.811 1271.13L932.342 1195.4L964.54 1221.46L902.327 1295.41L870.811 1271.13ZM1055.95 1110.8L1082.96 1039.03H1120.48L1119.39 1091.29L1073 1150.37L1055.95 1110.8ZM1175.33 1039.17H1212.03L1175.46 1086.92V1039.17H1175.33ZM1213.39 943.793L1201.93 944.203V906.407H1213.39V943.793ZM1213.39 902.041H1196.2V947.887L1213.39 947.341V1029.07H1173.01L1172.19 882.666L1213.39 853.33V902.041ZM1190.2 855.922L1171.64 856.332L1170.01 707.879L1209.98 691.506L1210.66 692.051L1212.57 693.143H1213.39V840.504L1190.2 855.922ZM1217.76 693.279L1257.19 694.644L1259.64 809.122L1217.76 838.048V693.279ZM1302.48 696.281L1339.46 697.509L1309.99 744.719L1302.48 696.281ZM1305.89 685.775L1303.57 591.082L1342.73 585.897L1342.59 687.003L1305.89 685.775ZM1303.71 587.534L1301.66 500.346L1341.5 501.846L1343 502.529L1342.87 582.349L1303.71 587.534ZM1263.33 495.433L1263.19 484.108L1315.31 371.132L1349.55 386.277L1298.8 496.934L1263.33 495.433ZM1316.67 367.857L1359.24 275.62L1392.94 291.311L1350.92 383.002L1316.67 367.857ZM1306.98 363.491L1274.1 349.027L1314.9 254.744L1349.55 270.981L1306.98 363.491ZM1316.26 251.469L1356.37 158.686L1393.48 175.469L1350.92 267.706L1316.26 251.469ZM1251.05 180.108L1273.29 234.14L1246.41 294.176L1245.59 294.449L1211.35 184.338C1218.71 181.745 1226.35 180.381 1234.13 180.244C1238.22 180.381 1244.09 180.381 1251.05 180.108ZM1242.18 295.541L1210.25 304.683C1189.11 237.552 1186.11 235.778 1183.51 234.413C1181.19 233.185 1174.65 227.591 1166.19 219.95L1182.15 197.982C1190.33 193.07 1199.07 188.977 1208.07 185.702L1242.18 295.541ZM1177.37 243.146C1180.51 247.921 1188.97 272.891 1199.61 306.729L1157.18 312.324L1145.86 247.649L1159.77 228.546C1167.96 235.778 1174.51 241.099 1177.37 243.146ZM1142.86 250.923L1153.63 312.733L1114.61 317.918L1108.2 275.347L1142.86 250.923ZM1104.93 277.667L1111.07 318.327L1062.23 324.74L1064.95 305.911L1104.93 277.667ZM1041.76 393.236L955.808 404.151L946.394 395.146L989.78 352.302L1052.95 313.552L1041.76 393.236ZM985.687 239.598L988.006 294.449L949.942 281.487L972.726 235.096L985.687 239.598ZM946.394 280.395L898.37 264.022L922.792 217.631L969.178 233.731L946.394 280.395ZM894.959 262.93L853.62 248.877L861.533 223.225L858.123 222.133L850.21 247.649L821.422 237.961L844.889 190.614L919.381 216.539L894.959 262.93ZM873.812 124.302L843.252 186.112L815.146 175.469L852.12 113.25L873.812 124.302ZM811.736 174.377L783.631 163.735L819.376 97.0127L848.845 111.749L811.736 174.377ZM781.857 166.873L841.614 189.386L818.148 236.869L755.662 215.72L781.857 166.873ZM698.633 193.207L649.109 174.241L669.301 127.577L717.597 148.043L698.633 193.207ZM647.744 177.379L674.349 187.476L623.596 322.148L591.261 308.23L647.744 177.379ZM622.231 325.695L608.861 361.308L625.506 367.721L603.404 420.252L552.515 398.011L589.897 311.505L622.231 325.695ZM481.57 378.773L544.874 406.471L507.901 492.159L442.687 463.369L481.57 378.773ZM396.709 553.969L367.24 540.733L405.304 455.864L430.408 465.825L396.709 553.969ZM405.986 446.995H363.147L447.735 249.695L481.706 264.977L405.986 446.995ZM404.759 339.34L371.469 325.559L411.58 233.049L444.46 247.239L404.759 339.34ZM472.838 113.25L454.829 124.029L409.534 228.41L375.153 213.537L436.274 77.0917L475.976 96.3305L472.838 113.25ZM372.015 212.036L339.408 197.846L399.847 59.2173L433.409 75.4543L372.015 212.036ZM336.133 196.481L299.569 180.654L360.827 40.5243L396.436 57.7164L336.133 196.481ZM334.769 199.62L286.063 311.505L249.635 294.859L298.205 183.792L334.769 199.62ZM242.131 303.182L204.885 388.324L168.322 371.677L205.568 286.399L242.131 303.182ZM203.385 391.598L175.28 455.864L138.307 440.037L166.821 374.816L203.385 391.598ZM135.169 438.809L103.926 425.437L133.941 359.943L163.819 373.588L135.169 438.809ZM133.668 442.083L105.836 505.803L75.1384 488.338L102.425 428.712L133.668 442.083ZM136.942 443.448L173.915 459.275L144.037 527.498L108.974 507.577L136.942 443.448ZM142.672 530.636L122.208 577.437L86.4623 558.881L107.473 510.852L142.672 530.636ZM145.674 532.41L178.281 550.967L158.499 596.676L125.209 579.211L145.674 532.41ZM157.271 599.951L129.302 664.353L94.7847 649.071L123.981 582.486L157.271 599.951ZM151.813 639.111L175.689 650.981L177.19 647.843L153.314 635.836L166.684 604.863L213.071 629.696L187.149 690.005L138.989 668.719L151.813 639.111ZM226.305 711.29L211.707 747.039L121.389 709.243L137.488 671.994L226.305 711.29ZM229.58 712.791L259.322 726.026L206.386 769.825L229.58 712.791ZM227.533 756.863L251 784.289L223.849 809.804L183.056 793.703L227.533 756.863ZM214.845 817.581L204.34 846.098L167.23 830.816L192.879 808.849L214.845 817.581ZM164.092 833.409L203.112 849.373L190.56 883.348L133.395 859.606L164.092 833.409ZM130.257 862.199L189.196 886.623L175.825 922.917L99.1505 891.125L97.6497 890.034L130.257 862.199ZM192.607 887.987L258.64 915.276L244.724 951.298L179.236 924.282L192.607 887.987ZM243.359 954.709L231.08 986.364L166.002 959.894L177.872 927.693L243.359 954.709ZM253.182 958.802L322.081 987.319L310.757 1018.84L240.904 990.321L253.182 958.802ZM309.529 1022.11L293.976 1065.23L221.121 1041.35L239.676 993.732L309.529 1022.11ZM292.748 1068.5L280.469 1102.75L206.795 1078.33L219.893 1044.63L292.748 1068.5ZM279.241 1106.16L266.416 1141.64L194.38 1117.22L205.704 1081.88L279.241 1106.16ZM265.188 1144.91L252.5 1179.98L182.511 1153.92L193.289 1120.35L265.188 1144.91ZM250.59 1183.12L223.577 1210.41L170.368 1191.71L181.283 1157.47L250.59 1183.12ZM220.848 1213.14L187.695 1246.43L156.588 1234.56L169.277 1194.99L220.848 1213.14ZM184.966 1249.29L151.131 1283.41L142.263 1279.59L155.633 1237.97L184.966 1249.29ZM148.539 1286.13L136.396 1298.42L141.308 1283L148.539 1286.13ZM220.575 1228.55L247.452 1252.71L208.706 1292.41L163.274 1286.27L220.575 1228.55ZM250.044 1255.03L283.334 1284.91L275.967 1301.42L213.071 1292.96L250.044 1255.03ZM368.468 1102.07L425.223 1132.09L395.754 1240.29L360.282 1232.78L359.6 1236.2L394.799 1243.56L375.562 1314.52L279.65 1301.69L368.468 1102.07ZM435.183 1137.14L472.156 1148.46L422.222 1313.97H387.432L435.183 1137.14ZM436.138 1132.77L443.369 1106.16L468.336 1019.38L507.901 1029.07L473.247 1143.55L436.138 1132.77ZM493.03 1090.34L536.143 1102.34L518.952 1156.92L476.522 1144.64L493.03 1090.34ZM546.375 1081.47L583.758 1093.34L560.018 1168.93L522.363 1158.01L546.375 1081.47ZM674.894 1273.85L652.929 1268.53L657.977 1243.97L676.395 1236.47L681.307 1219.82L674.894 1273.85ZM747.067 1171.79L742.292 1226.1L694.813 1208.91L747.067 1171.79ZM745.02 1230.6L785.541 1240.02L767.259 1302.51L729.331 1286.13L745.02 1230.6ZM728.512 1289.55L766.304 1305.78L747.34 1371L708.729 1360.09L728.512 1289.55ZM770.397 1330.34L782.676 1360.91L758.8 1369.78L770.397 1330.34ZM902.872 1300.33L933.842 1324.2L896.187 1370.59L879.952 1327.61L902.872 1300.33ZM905.192 1297.6L967.268 1223.64L996.328 1247.25L936.162 1321.61L905.192 1297.6ZM999.057 1249.43L1028.8 1273.45L970.816 1348.22L938.89 1323.52L999.057 1249.43ZM1005.74 1241.11L1072.32 1156.1L1089.24 1195.26L1035.21 1265.12L1005.74 1241.11ZM1090.88 1198.95L1106.16 1234.15L1064.68 1288.73L1038.08 1267.17L1090.88 1198.95ZM1158 1183.66L1201.93 1218.73L1118.03 1331.98L1072.87 1295.41L1158 1183.66ZM1252 1254.21L1206.84 1218.19L1250.23 1159.65L1297.02 1198.54L1252.96 1259.12L1252 1254.21ZM1204.11 1215.87L1160.18 1180.8L1204.93 1121.85L1247.5 1157.19L1204.11 1215.87ZM1151.86 1174.25L1125.94 1153.65L1171.78 1094.43L1196.75 1115.17L1151.86 1174.25ZM1173.96 1092.79L1216.53 1039.03H1256.5L1198.93 1114.08L1173.96 1092.79ZM1217.76 1029.07V851.01L1259.37 823.448L1261.83 1029.07H1217.76ZM1270.42 910.228L1320.22 908.454L1327.86 1029.07H1272.47L1270.42 910.228ZM1270.42 905.179L1268.92 814.716L1297.02 795.477V795.613L1313.12 794.522L1319.95 902.587L1270.42 905.179ZM1316.67 794.385L1356.92 791.657L1363.19 900.404L1323.63 902.45L1316.67 794.385ZM1316.53 790.838L1315.99 782.515L1355.01 755.908L1356.92 788.109L1316.53 790.838ZM1346.41 585.351L1383.52 580.439L1385.3 623.965L1346.28 686.594L1346.41 585.351ZM1342.59 498.435L1342.32 498.299L1302.62 496.798L1352.83 387.505L1389.53 403.742L1344.09 498.981L1342.59 498.435ZM1412.04 300.18L1371.79 392.144L1354.05 384.367L1396.07 292.812L1412.04 300.18ZM1436.87 195.253L1394.3 288.036L1360.6 272.345L1403.17 179.972L1436.87 195.253ZM1394.98 172.331L1357.87 155.411L1361.56 147.088C1384.61 128.395 1418.18 99.1958 1436.05 83.3682L1394.98 172.331ZM1341.77 148.726C1327.72 157.867 1307.12 164.144 1280.24 167.282L1276.97 116.388C1288.43 112.295 1299.62 107.519 1310.53 102.198L1341.77 148.726ZM1231.4 127.031C1245.73 125.53 1259.92 122.392 1273.42 117.616L1276.56 167.691C1262.37 169.192 1248.18 169.875 1233.99 169.738C1225.13 169.875 1216.39 171.512 1208.07 174.377L1195.66 134.126C1207.25 130.442 1219.26 128.122 1231.4 127.031ZM1192.24 135.081L1204.8 175.332C1194.56 179.016 1184.74 183.792 1175.46 189.386L1174.65 189.932L1158.14 212.718C1146.68 202.076 1133.44 189.25 1123.07 178.334C1142.31 158.55 1166.05 143.814 1192.24 135.081ZM1021.98 131.67C1058.81 124.438 1081.73 124.438 1090.06 131.261C1094.01 134.672 1094.29 139.447 1094.15 147.088C1094.15 151.045 1094.01 155.138 1095.11 158.686C1098.52 170.011 1128.67 200.165 1151.86 221.315L1136.72 242.191L1062.5 294.586C1052.95 270.162 1018.43 181.063 1008.33 143.95C1007.52 140.675 1006.97 137.401 1006.83 133.989C1011.47 133.58 1016.52 132.761 1021.98 131.67ZM916.106 84.7326C923.883 105.609 936.435 138.765 996.192 135.081C996.465 139.038 997.01 142.995 998.102 146.815C1004.79 171.512 1021.57 217.085 1035.08 253.106L846.662 187.34L877.087 125.939L878.997 126.894L880.634 123.756L878.724 122.801L906.147 67.4041C907.647 68.6321 909.012 70.133 910.24 71.6339C912.15 74.4992 913.923 79.2748 916.106 84.7326ZM852.392 35.6123C872.039 45.5728 892.231 56.7613 903.145 65.0845L875.449 121.164L821.149 93.8745L852.392 35.6123ZM809.962 92.2371L767.532 171.239L750.887 158.277L749.795 159.641L750.478 158.004L722.373 146.133L756.344 65.3574L809.962 92.2371ZM753.07 63.5836L719.098 144.632L670.801 124.165L707.092 40.2514L753.07 63.5836ZM587.987 306.866L558.245 294.04L574.617 257.336L570.524 246.83L582.53 219.95L593.171 214.629L616.092 162.234L644.47 176.015L587.987 306.866ZM612.954 160.46L590.443 211.9L572.707 220.769L557.835 212.855L587.714 147.907L612.954 160.46ZM473.52 370.859L434.364 456.001L409.397 446.04L444.324 362.263L473.52 370.859ZM483.071 260.202L449.099 245.465L500.534 126.076L502.444 125.257L502.853 123.483V101.243L552.651 96.6034L483.071 260.202ZM498.624 101.515V117.616L490.165 106.018L477.477 111.203L479.796 97.6949L490.029 102.198L498.624 101.515ZM341.863 31.246L357.689 38.887L296.431 179.153L251.136 159.641L341.863 31.246ZM112.794 103.426L245.679 161.006L224.941 190.341L96.0126 131.67L112.794 103.426ZM94.2389 134.945L222.894 193.48L175.143 261.02L52.9 205.214L94.2389 134.945ZM173.915 272.072L202.293 285.035L165.047 370.313L135.305 356.805L173.915 272.072ZM101.743 345.207L130.53 358.442L100.515 424.072L71.5912 411.792C87.9631 374.952 98.8776 351.347 101.743 345.207ZM54.2643 451.089C59.9945 437.99 65.3153 425.846 70.2269 414.931L99.1505 427.211L72.0005 486.565L47.7156 472.784C48.9435 465.279 51.2628 458.047 54.2643 451.089ZM47.1698 476.468L70.4998 489.703L55.4922 522.586C48.1249 508.396 45.2598 492.432 47.1698 476.468ZM57.5387 526.543L73.5013 491.477L104.335 508.942L83.4608 556.834C73.092 548.374 64.3603 538.141 57.5387 526.543ZM85.098 562.019L120.707 580.712L91.5103 647.57L54.9465 631.333L85.098 562.019ZM53.4457 634.608L90.0096 650.845L73.3648 689.05L36.3917 673.631L53.4457 634.608ZM76.6392 690.414L93.2839 652.346L127.801 667.628L111.566 705.15L76.6392 690.414ZM120.025 712.518L210.343 750.45L200.52 774.601L179.236 792.202L99.2869 760.411L120.025 712.518ZM189.059 807.348L94.6482 887.987L55.4922 861.517L95.0575 770.098L189.059 807.348ZM35.9824 906.817L54.1279 864.928L91.9196 890.443L60.8131 916.914L35.9824 906.817ZM64.4967 918.414L94.9211 892.49L97.5133 894.264L97.6497 894.4L174.734 926.328L162.864 958.529L64.4967 918.414ZM164.774 963.169L229.853 989.639L211.161 1038.08L145.128 1016.38L164.774 963.169ZM143.9 1019.66L209.797 1041.22L196.699 1074.92L131.348 1053.36L143.9 1019.66ZM130.121 1056.63L195.472 1078.33L184.148 1113.67L117.432 1091.02L130.121 1056.63ZM116.205 1094.43L183.056 1117.22L172.415 1150.51L104.744 1125.27L116.205 1094.43ZM103.653 1128.4L171.46 1153.65L160.409 1188.17L90.5553 1163.74L103.653 1128.4ZM89.3274 1167.02L159.317 1191.58L146.765 1230.87L75.8206 1203.72L89.3274 1167.02ZM74.5927 1207L145.674 1234.29L132.44 1275.49L60.5402 1244.79L74.5927 1207ZM59.4487 1248.07L131.485 1278.77L121.116 1311.1L45.5327 1285.59L59.4487 1248.07ZM133.259 1316.7L160.272 1289.55L205.704 1295.69L166.957 1335.53L133.259 1316.7ZM209.933 1296.1L274.466 1304.83L242.268 1377.28L170.095 1337.17L209.933 1296.1ZM245.542 1378.78L254.41 1358.72L303.935 1381.92L305.436 1378.65L255.911 1355.45L278.286 1305.24L374.334 1318.06L330.676 1411.8L245.542 1378.78ZM384.43 1438.14L340.363 1418.35L383.884 1325.43H418.948L384.43 1438.14ZM475.567 1148.87L517.861 1161.7L470.11 1313.97H425.769L475.567 1148.87ZM440.231 1392.02L457.285 1325.43H500.125L483.071 1387.92L440.231 1392.02ZM486.618 1387.65L503.808 1325.43H535.324L543.101 1318.47L546.102 1318.61L525.092 1398.16L486.618 1387.65ZM536.006 1370.05L549.513 1318.88L583.894 1328.57L571.752 1379.74L536.006 1370.05ZM575.162 1380.69L587.305 1329.52L626.87 1340.71L611.999 1390.65L575.162 1380.69ZM652.929 1401.7L615.41 1391.61L630.281 1341.8L665.48 1351.77L652.929 1401.7ZM669.573 1349.04L685.263 1215.59L691.266 1211.36L741.61 1229.51L705.319 1359.13L669.573 1349.04ZM693.722 1413.85L707.774 1363.64L746.385 1374.55L732.196 1423.4L693.722 1413.85ZM742.974 1424.22L757.709 1374.01L784.04 1364.18L800.412 1404.71L742.974 1424.22ZM787.314 1362.95L820.194 1350.67L836.839 1392.29L803.55 1403.61L787.314 1362.95ZM840.25 1391.2L823.605 1349.45L876.95 1329.66L893.459 1373.19L840.25 1391.2ZM911.74 1411.39L897.688 1374.42L936.708 1326.39L968.496 1350.95L911.74 1411.39ZM973.681 1350.54L1031.53 1275.77L1058.27 1297.46L1001.51 1372.1L973.681 1350.54ZM1056.77 1414.8L1009.84 1378.51L1066.45 1304.01L1111.61 1340.58L1056.77 1414.8ZM1120.89 1334.3L1140.81 1307.42L1224.31 1298.82L1169.87 1373.87L1120.89 1334.3ZM1209.16 1405.8L1172.6 1376.19L1189.24 1353.27L1227.04 1378.92L1209.16 1405.8ZM1280.79 1411.26L1231.81 1378.1L1263.87 1329.93L1280.79 1411.26ZM1265.78 1320.79L1260.46 1295.14L1284.47 1292.68L1265.78 1320.79ZM1259.78 1291.59L1254.05 1263.76L1299.89 1200.72L1317.35 1215.18L1334.95 1283.82L1259.78 1291.59ZM1320.35 1213.27L1301.94 1197.85L1323.08 1168.79L1377.93 1279.45L1338.5 1283.54L1320.35 1213.27ZM1381.48 1279.18L1325.27 1165.65L1352.28 1128.4L1428.82 1274.26L1381.48 1279.18ZM1350.37 1124.86L1299.07 1195.54L1252.28 1156.65L1297.98 1094.84L1311.9 1085.15L1350.37 1124.86ZM1295.8 1092.25L1295.52 1092.38L1249.55 1154.46L1206.98 1119.13L1267.56 1039.44L1309.44 1082.69L1295.8 1092.25ZM1340 1029.07H1331.54L1323.9 907.499L1363.47 904.77L1369.06 1004.38L1340 1029.07ZM1408.9 970.264L1372.47 999.736L1367.01 903.815L1403.85 901.904L1408.9 970.264ZM1403.58 898.357L1366.74 900.267L1360.47 791.384L1395.39 789.064L1403.58 898.357ZM1395.12 785.517L1360.33 787.836L1358.42 753.588L1391.03 731.211L1395.12 785.517ZM1393.48 716.612L1392.25 699.419L1417.49 700.238L1393.48 716.612ZM1387.89 688.64L1349.96 687.276L1385.57 630.378L1387.89 688.64ZM1388.71 618.644L1387.21 579.893L1415.18 576.209L1388.71 618.644ZM1417.63 572.252L1387.07 576.346L1384.75 520.13L1436.46 541.961L1417.63 572.252ZM1423.5 418.888L1381.89 515.082L1347.23 500.346L1392.66 405.107L1423.5 418.888Z" fill="white"/>
</svg>
